<svg xmlns="http://www.w3.org/2000/svg" width="166.15" height="35" viewBox="0 0 166.15 35"><rect class="svg__rect" x="0" y="0" width="0" height="35" fill="#31C4F3"/><rect class="svg__rect" x="0" y="0" width="166.15" height="35" fill="#13222C"/><path class="svg__text" d="" fill="#FFFFFF"/><path class="svg__text" d="M13.76 17.80L13.76 17.80Q13.76 16.54 14.36 15.54Q14.96 14.55 16.02 13.99Q17.09 13.43 18.44 13.43L18.44 13.43Q19.61 13.43 20.55 13.83Q21.49 14.22 22.11 14.97L22.11 14.97L20.60 16.33Q19.75 15.40 18.58 15.40L18.58 15.40Q18.56 15.40 18.56 15.40L18.56 15.40Q17.48 15.40 16.82 16.06Q16.16 16.71 16.16 17.80L16.16 17.80Q16.16 18.50 16.46 19.04Q16.76 19.59 17.30 19.89Q17.84 20.20 18.54 20.20L18.54 20.20Q19.22 20.20 19.82 19.93L19.82 19.93L19.82 17.62L21.92 17.62L21.92 21.10Q21.20 21.61 20.26 21.89Q19.33 22.17 18.39 22.17L18.39 22.17Q17.07 22.17 16.01 21.61Q14.96 21.05 14.36 20.05Q13.76 19.06 13.76 17.80ZM26.48 17.80L26.48 17.80Q26.48 16.55 27.08 15.55Q27.69 14.56 28.75 14.00Q29.81 13.43 31.14 13.43L31.14 13.43Q32.48 13.43 33.54 14.00Q34.60 14.56 35.21 15.55Q35.81 16.55 35.81 17.80L35.81 17.80Q35.81 19.05 35.21 20.04Q34.60 21.04 33.54 21.60Q32.48 22.17 31.14 22.17L31.14 22.17Q29.81 22.17 28.75 21.60Q27.69 21.04 27.08 20.04Q26.48 19.05 26.48 17.80ZM28.88 17.80L28.88 17.80Q28.88 18.51 29.18 19.05Q29.48 19.60 30.00 19.90Q30.51 20.20 31.14 20.20L31.14 20.20Q31.78 20.20 32.30 19.90Q32.81 19.60 33.11 19.05Q33.41 18.51 33.41 17.80L33.41 17.80Q33.41 17.09 33.11 16.54Q32.81 16 32.30 15.70Q31.78 15.40 31.14 15.40L31.14 15.40Q30.51 15.40 29.99 15.70Q29.48 16 29.18 16.54Q28.88 17.09 28.88 17.80ZM40.12 17.80L40.12 17.80Q40.12 16.55 40.72 15.55Q41.32 14.56 42.39 14.00Q43.45 13.43 44.78 13.43L44.78 13.43Q46.11 13.43 47.17 14.00Q48.24 14.56 48.84 15.55Q49.45 16.55 49.45 17.80L49.45 17.80Q49.45 19.05 48.84 20.04Q48.24 21.04 47.18 21.60Q46.12 22.17 44.78 22.17L44.78 22.17Q43.45 22.17 42.39 21.60Q41.32 21.04 40.72 20.04Q40.12 19.05 40.12 17.80ZM42.51 17.80L42.51 17.80Q42.51 18.51 42.81 19.05Q43.12 19.60 43.63 19.90Q44.15 20.20 44.78 20.20L44.78 20.20Q45.42 20.20 45.93 19.90Q46.45 19.60 46.75 19.05Q47.05 18.51 47.05 17.80L47.05 17.80Q47.05 17.09 46.75 16.54Q46.45 16 45.93 15.70Q45.42 15.40 44.78 15.40L44.78 15.40Q44.14 15.40 43.63 15.70Q43.12 16 42.81 16.54Q42.51 17.09 42.51 17.80ZM53.75 17.80L53.75 17.80Q53.75 16.54 54.35 15.54Q54.95 14.55 56.02 13.99Q57.08 13.43 58.43 13.43L58.43 13.43Q59.60 13.43 60.54 13.83Q61.48 14.22 62.10 14.97L62.10 14.97L60.59 16.33Q59.74 15.40 58.57 15.40L58.57 15.40Q58.56 15.40 58.55 15.40L58.55 15.40Q57.47 15.40 56.81 16.06Q56.15 16.71 56.15 17.80L56.15 17.80Q56.15 18.50 56.45 19.04Q56.75 19.59 57.29 19.89Q57.83 20.20 58.53 20.20L58.53 20.20Q59.21 20.20 59.81 19.93L59.81 19.93L59.81 17.62L61.91 17.62L61.91 21.10Q61.19 21.61 60.25 21.89Q59.32 22.17 58.38 22.17L58.38 22.17Q57.06 22.17 56.00 21.61Q54.95 21.05 54.35 20.05Q53.75 19.06 53.75 17.80ZM73.29 22L66.90 22L66.90 13.60L69.28 13.60L69.28 20.11L73.29 20.11L73.29 22ZM84.45 22L77.70 22L77.70 13.60L84.30 13.60L84.30 15.44L80.06 15.44L80.06 16.85L83.79 16.85L83.79 18.63L80.06 18.63L80.06 20.17L84.45 20.17L84.45 22ZM95.80 17.80L95.80 17.80Q95.80 16.54 96.39 15.54Q96.99 14.55 98.04 13.99Q99.10 13.43 100.41 13.43L100.41 13.43Q101.57 13.43 102.49 13.84Q103.41 14.25 104.03 15.02L104.03 15.02L102.52 16.39Q101.70 15.40 100.54 15.40L100.54 15.40Q99.85 15.40 99.32 15.70Q98.79 16 98.49 16.54Q98.19 17.09 98.19 17.80L98.19 17.80Q98.19 18.51 98.49 19.05Q98.79 19.60 99.32 19.90Q99.85 20.20 100.54 20.20L100.54 20.20Q101.70 20.20 102.52 19.22L102.52 19.22L104.03 20.58Q103.42 21.35 102.49 21.76Q101.57 22.17 100.41 22.17L100.41 22.17Q99.10 22.17 98.04 21.61Q96.99 21.05 96.39 20.05Q95.80 19.06 95.80 17.80ZM108.14 17.80L108.14 17.80Q108.14 16.55 108.74 15.55Q109.34 14.56 110.41 14.00Q111.47 13.43 112.80 13.43L112.80 13.43Q114.13 13.43 115.19 14.00Q116.26 14.56 116.86 15.55Q117.47 16.55 117.47 17.80L117.47 17.80Q117.47 19.05 116.86 20.04Q116.26 21.04 115.20 21.60Q114.14 22.17 112.80 22.17L112.80 22.17Q111.47 22.17 110.41 21.60Q109.34 21.04 108.74 20.04Q108.14 19.05 108.14 17.80ZM110.53 17.80L110.53 17.80Q110.53 18.51 110.84 19.05Q111.14 19.60 111.65 19.90Q112.17 20.20 112.80 20.20L112.80 20.20Q113.44 20.20 113.96 19.90Q114.47 19.60 114.77 19.05Q115.07 18.51 115.07 17.80L115.07 17.80Q115.07 17.09 114.77 16.54Q114.47 16 113.96 15.70Q113.44 15.40 112.80 15.40L112.80 15.40Q112.16 15.40 111.65 15.70Q111.14 16 110.84 16.54Q110.53 17.09 110.53 17.80ZM128.59 22L122.20 22L122.20 13.60L124.58 13.60L124.58 20.11L128.59 20.11L128.59 22ZM134.42 22L132.00 22L135.71 13.60L138.05 13.60L141.76 22L139.30 22L138.64 20.37L135.08 20.37L134.42 22ZM136.86 15.93L135.78 18.61L137.94 18.61L136.86 15.93ZM150.46 22L145.92 22L145.92 13.60L150.22 13.60Q151.82 13.60 152.67 14.19Q153.51 14.79 153.51 15.79L153.51 15.79Q153.51 16.39 153.21 16.87Q152.91 17.34 152.38 17.62L152.38 17.62Q153.10 17.87 153.50 18.41Q153.91 18.94 153.91 19.70L153.91 19.70Q153.91 20.80 153.02 21.40Q152.14 22 150.46 22L150.46 22ZM148.27 18.58L148.27 20.28L150.27 20.28Q151.51 20.28 151.51 19.43L151.51 19.43Q151.51 18.58 150.27 18.58L150.27 18.58L148.27 18.58ZM148.27 15.31L148.27 16.94L149.90 16.94Q151.10 16.94 151.10 16.12L151.10 16.12Q151.10 15.31 149.90 15.31L149.90 15.31L148.27 15.31Z" fill="#FFFFFF" x="39"/></svg>