<svg xmlns="http://www.w3.org/2000/svg" width="126.05" height="35" viewBox="0 0 126.05 35"><rect class="svg__rect" x="0" y="0" width="0" height="35" fill="#31C4F3"/><rect class="svg__rect" x="0" y="0" width="126.05" height="35" fill="#1D5475"/><path class="svg__text" d="" fill="#FFFFFF"/><path class="svg__text" d="M16.52 22L14.19 22L14.19 13.60L16.14 13.60L19.85 18.07L19.85 13.60L22.18 13.60L22.18 22L20.23 22L16.52 17.52L16.52 22ZM34.09 22L27.34 22L27.34 13.60L33.93 13.60L33.93 15.44L29.70 15.44L29.70 16.85L33.43 16.85L33.43 18.63L29.70 18.63L29.70 20.17L34.09 20.17L34.09 22ZM40.68 15.48L38.10 15.48L38.10 13.60L45.62 13.60L45.62 15.48L43.06 15.48L43.06 22L40.68 22L40.68 15.48ZM52.07 22L49.35 13.60L51.80 13.60L53.49 18.96L55.26 13.60L57.45 13.60L59.14 19.01L60.90 13.60L63.17 13.60L60.45 22L57.90 22L56.30 16.89L54.62 22L52.07 22ZM67.26 17.80L67.26 17.80Q67.26 16.55 67.86 15.55Q68.46 14.56 69.53 14.00Q70.59 13.43 71.92 13.43L71.92 13.43Q73.25 13.43 74.31 14.00Q75.38 14.56 75.98 15.55Q76.59 16.55 76.59 17.80L76.59 17.80Q76.59 19.05 75.98 20.04Q75.38 21.04 74.32 21.60Q73.26 22.17 71.92 22.17L71.92 22.17Q70.59 22.17 69.53 21.60Q68.46 21.04 67.86 20.04Q67.26 19.05 67.26 17.80ZM69.65 17.80L69.65 17.80Q69.65 18.51 69.95 19.05Q70.26 19.60 70.77 19.90Q71.29 20.20 71.92 20.20L71.92 20.20Q72.56 20.20 73.07 19.90Q73.59 19.60 73.89 19.05Q74.19 18.51 74.19 17.80L74.19 17.80Q74.19 17.09 73.89 16.54Q73.59 16 73.07 15.70Q72.56 15.40 71.92 15.40L71.92 15.40Q71.28 15.40 70.77 15.70Q70.26 16 69.95 16.54Q69.65 17.09 69.65 17.80ZM83.70 22L81.32 22L81.32 13.60L85.16 13.60Q86.31 13.60 87.14 13.98Q87.98 14.35 88.44 15.06Q88.89 15.76 88.89 16.71L88.89 16.71Q88.89 17.62 88.47 18.30Q88.04 18.98 87.25 19.36L87.25 19.36L89.06 22L86.52 22L84.99 19.77L83.70 19.77L83.70 22ZM83.70 15.47L83.70 17.93L85.02 17.93Q85.75 17.93 86.12 17.61Q86.49 17.29 86.49 16.71L86.49 16.71Q86.49 16.12 86.12 15.79Q85.75 15.47 85.02 15.47L85.02 15.47L83.70 15.47ZM96.04 22L93.68 22L93.68 13.60L96.04 13.60L96.04 17.09L99.29 13.60L101.90 13.60L98.47 17.32L102.08 22L99.32 22L96.92 18.95L96.04 19.90L96.04 22ZM108.04 22L105.33 22L108.39 17.75L105.46 13.60L108.14 13.60L109.82 16.02L111.47 13.60L114.04 13.60L111.11 17.66L114.24 22L111.50 22L109.76 19.40L108.04 22Z" fill="#FFFFFF" x="39"/></svg>